<svg width="605" height="173" viewBox="0 0 605 173" fill="none" xmlns="http://www.w3.org/2000/svg">
<path d="M216.213 77V33.3636H233.685C236.895 33.3636 239.572 33.8395 241.717 34.7912C243.862 35.7429 245.474 37.0639 246.554 38.7543C247.633 40.4304 248.173 42.3622 248.173 44.5497C248.173 46.2543 247.832 47.7528 247.15 49.0455C246.469 50.3239 245.531 51.375 244.338 52.1989C243.159 53.0085 241.81 53.5838 240.29 53.9247V54.3509C241.952 54.4219 243.507 54.8906 244.956 55.7571C246.419 56.6236 247.605 57.8381 248.514 59.4006C249.423 60.9489 249.878 62.7955 249.878 64.9403C249.878 67.2557 249.302 69.3224 248.152 71.1406C247.015 72.9446 245.332 74.3722 243.102 75.4233C240.872 76.4744 238.123 77 234.856 77H216.213ZM225.439 69.4574H232.96C235.531 69.4574 237.406 68.9673 238.585 67.9872C239.764 66.9929 240.354 65.6719 240.354 64.0241C240.354 62.8168 240.062 61.7514 239.48 60.8281C238.898 59.9048 238.067 59.1804 236.987 58.6548C235.922 58.1293 234.65 57.8665 233.173 57.8665H225.439V69.4574ZM225.439 51.6236H232.278C233.542 51.6236 234.665 51.4034 235.645 50.9631C236.639 50.5085 237.42 49.8693 237.989 49.0455C238.571 48.2216 238.862 47.2344 238.862 46.0838C238.862 44.5071 238.301 43.2358 237.179 42.2699C236.071 41.304 234.494 40.821 232.449 40.821H225.439V51.6236ZM256.31 77V44.2727H265.11V49.983H265.451C266.048 47.9517 267.049 46.4176 268.455 45.3807C269.862 44.3295 271.481 43.804 273.313 43.804C273.768 43.804 274.258 43.8324 274.783 43.8892C275.309 43.946 275.771 44.0241 276.168 44.1236V52.1776C275.742 52.0497 275.153 51.9361 274.4 51.8366C273.647 51.7372 272.958 51.6875 272.333 51.6875C270.998 51.6875 269.805 51.9787 268.754 52.5611C267.717 53.1293 266.893 53.9247 266.282 54.9474C265.685 55.9702 265.387 57.1491 265.387 58.4844V77H256.31ZM281.461 77V44.2727H290.538V77H281.461ZM286.021 40.054C284.671 40.054 283.514 39.6065 282.548 38.7116C281.596 37.8026 281.12 36.7159 281.12 35.4517C281.12 34.2017 281.596 33.1293 282.548 32.2344C283.514 31.3253 284.671 30.8707 286.021 30.8707C287.37 30.8707 288.521 31.3253 289.473 32.2344C290.438 33.1293 290.921 34.2017 290.921 35.4517C290.921 36.7159 290.438 37.8026 289.473 38.7116C288.521 39.6065 287.37 40.054 286.021 40.054ZM337.081 48.6406H327.748C327.578 47.4332 327.23 46.3608 326.704 45.4233C326.179 44.4716 325.504 43.6619 324.68 42.9943C323.856 42.3267 322.905 41.8153 321.825 41.4602C320.76 41.1051 319.602 40.9276 318.352 40.9276C316.094 40.9276 314.126 41.4886 312.45 42.6108C310.774 43.7187 309.474 45.3381 308.551 47.4688C307.628 49.5852 307.166 52.1562 307.166 55.1818C307.166 58.2926 307.628 60.9062 308.551 63.0227C309.488 65.1392 310.795 66.7372 312.471 67.8168C314.148 68.8963 316.086 69.4361 318.288 69.4361C319.524 69.4361 320.667 69.2727 321.719 68.946C322.784 68.6193 323.728 68.1435 324.552 67.5185C325.376 66.8793 326.058 66.1051 326.598 65.196C327.152 64.2869 327.535 63.25 327.748 62.0852L337.081 62.1278C336.839 64.1307 336.236 66.0625 335.27 67.9233C334.318 69.7699 333.032 71.4247 331.413 72.8878C329.808 74.3366 327.89 75.4872 325.66 76.3395C323.444 77.1776 320.937 77.5966 318.139 77.5966C314.247 77.5966 310.767 76.7159 307.699 74.9545C304.645 73.1932 302.23 70.6435 300.454 67.3054C298.693 63.9673 297.812 59.9261 297.812 55.1818C297.812 50.4233 298.707 46.375 300.497 43.0369C302.287 39.6989 304.716 37.1562 307.784 35.4091C310.852 33.6477 314.304 32.767 318.139 32.767C320.667 32.767 323.011 33.1222 325.17 33.8324C327.344 34.5426 329.268 35.5795 330.944 36.9432C332.621 38.2926 333.984 39.9474 335.035 41.9077C336.101 43.8679 336.782 46.1122 337.081 48.6406ZM352.01 33.3636L360.809 48.2358H361.15L369.993 33.3636H380.412L367.095 55.1818L380.71 77H370.099L361.15 62.1065H360.809L351.86 77H341.292L354.95 55.1818L341.548 33.3636H352.01ZM409.158 49.0455L402.894 33.3636H406.367L410.266 43.7188L414.144 33.3636H417.617L411.374 49.0455H409.158ZM401.679 49.0455V33.3636H405.621V49.0455H401.679ZM414.889 49.0455V33.3636H418.852V49.0455H414.889ZM390.216 49.0455V34.7273H394.179V49.0455H390.216ZM385.443 36.6236V33.3636H398.952V36.6236H385.443ZM232.839 108.913C232.669 107.195 231.938 105.859 230.645 104.908C229.352 103.956 227.598 103.48 225.382 103.48C223.876 103.48 222.605 103.693 221.568 104.119C220.531 104.531 219.736 105.107 219.182 105.845C218.642 106.584 218.372 107.422 218.372 108.359C218.344 109.141 218.507 109.822 218.862 110.405C219.232 110.987 219.736 111.491 220.375 111.918C221.014 112.33 221.753 112.692 222.591 113.004C223.429 113.303 224.324 113.558 225.276 113.771L229.196 114.709C231.099 115.135 232.847 115.703 234.438 116.413C236.028 117.124 237.406 117.997 238.571 119.034C239.736 120.071 240.638 121.293 241.277 122.699C241.93 124.105 242.264 125.717 242.278 127.536C242.264 130.206 241.582 132.521 240.233 134.482C238.898 136.428 236.966 137.94 234.438 139.02C231.923 140.085 228.891 140.618 225.339 140.618C221.817 140.618 218.749 140.078 216.135 138.999C213.536 137.919 211.504 136.321 210.041 134.205C208.592 132.074 207.832 129.439 207.761 126.3H216.689C216.788 127.763 217.207 128.984 217.946 129.964C218.699 130.93 219.7 131.662 220.95 132.159C222.214 132.642 223.642 132.884 225.233 132.884C226.795 132.884 228.152 132.656 229.303 132.202C230.467 131.747 231.369 131.115 232.009 130.305C232.648 129.496 232.967 128.565 232.967 127.514C232.967 126.534 232.676 125.71 232.094 125.043C231.526 124.375 230.688 123.807 229.58 123.338C228.486 122.869 227.143 122.443 225.553 122.06L220.801 120.866C217.122 119.972 214.217 118.572 212.087 116.669C209.956 114.766 208.898 112.202 208.912 108.977C208.898 106.335 209.601 104.027 211.021 102.053C212.456 100.078 214.423 98.5369 216.923 97.429C219.423 96.321 222.264 95.767 225.446 95.767C228.685 95.767 231.511 96.321 233.926 97.429C236.355 98.5369 238.244 100.078 239.594 102.053C240.943 104.027 241.639 106.314 241.682 108.913H232.839ZM266.321 107.273V114.091H246.612V107.273H266.321ZM251.087 99.4318H260.164V129.943C260.164 130.781 260.291 131.435 260.547 131.903C260.803 132.358 261.158 132.678 261.612 132.862C262.081 133.047 262.621 133.139 263.232 133.139C263.658 133.139 264.084 133.104 264.51 133.033C264.936 132.947 265.263 132.884 265.49 132.841L266.918 139.595C266.463 139.737 265.824 139.901 265 140.085C264.176 140.284 263.175 140.405 261.996 140.447C259.808 140.533 257.891 140.241 256.243 139.574C254.61 138.906 253.338 137.869 252.429 136.463C251.52 135.057 251.073 133.281 251.087 131.136V99.4318ZM293.821 126.065V107.273H302.898V140H294.183V134.055H293.842C293.104 135.973 291.875 137.514 290.156 138.679C288.452 139.844 286.371 140.426 283.913 140.426C281.726 140.426 279.801 139.929 278.139 138.935C276.477 137.94 275.178 136.527 274.24 134.695C273.317 132.862 272.848 130.668 272.834 128.111V107.273H281.911V126.491C281.925 128.423 282.443 129.95 283.466 131.072C284.489 132.195 285.859 132.756 287.578 132.756C288.672 132.756 289.695 132.507 290.646 132.01C291.598 131.499 292.365 130.746 292.948 129.751C293.544 128.757 293.835 127.528 293.821 126.065ZM322.818 140.533C320.332 140.533 318.081 139.893 316.063 138.615C314.061 137.322 312.47 135.426 311.291 132.926C310.126 130.412 309.544 127.33 309.544 123.679C309.544 119.929 310.147 116.811 311.355 114.325C312.562 111.825 314.167 109.957 316.17 108.722C318.187 107.472 320.396 106.847 322.796 106.847C324.629 106.847 326.156 107.159 327.377 107.784C328.613 108.395 329.608 109.162 330.36 110.085C331.127 110.994 331.71 111.889 332.108 112.77H332.385V96.3636H341.44V140H332.491V134.759H332.108C331.681 135.668 331.078 136.57 330.296 137.464C329.529 138.345 328.528 139.077 327.292 139.659C326.071 140.241 324.579 140.533 322.818 140.533ZM325.694 133.31C327.157 133.31 328.393 132.912 329.402 132.116C330.424 131.307 331.206 130.178 331.745 128.729C332.299 127.28 332.576 125.582 332.576 123.636C332.576 121.69 332.306 120 331.767 118.565C331.227 117.131 330.446 116.023 329.423 115.241C328.4 114.46 327.157 114.07 325.694 114.07C324.203 114.07 322.946 114.474 321.923 115.284C320.9 116.094 320.126 117.216 319.6 118.651C319.075 120.085 318.812 121.747 318.812 123.636C318.812 125.54 319.075 127.223 319.6 128.686C320.14 130.135 320.914 131.271 321.923 132.095C322.946 132.905 324.203 133.31 325.694 133.31ZM349.503 140V107.273H358.579V140H349.503ZM354.062 103.054C352.713 103.054 351.555 102.607 350.589 101.712C349.638 100.803 349.162 99.7159 349.162 98.4517C349.162 97.2017 349.638 96.1293 350.589 95.2344C351.555 94.3253 352.713 93.8707 354.062 93.8707C355.412 93.8707 356.562 94.3253 357.514 95.2344C358.48 96.1293 358.963 97.2017 358.963 98.4517C358.963 99.7159 358.48 100.803 357.514 101.712C356.562 102.607 355.412 103.054 354.062 103.054ZM381.237 140.639C377.928 140.639 375.065 139.936 372.651 138.53C370.25 137.109 368.396 135.135 367.089 132.607C365.783 130.064 365.129 127.116 365.129 123.764C365.129 120.384 365.783 117.429 367.089 114.901C368.396 112.358 370.25 110.384 372.651 108.977C375.065 107.557 377.928 106.847 381.237 106.847C384.547 106.847 387.402 107.557 389.803 108.977C392.217 110.384 394.078 112.358 395.385 114.901C396.692 117.429 397.345 120.384 397.345 123.764C397.345 127.116 396.692 130.064 395.385 132.607C394.078 135.135 392.217 137.109 389.803 138.53C387.402 139.936 384.547 140.639 381.237 140.639ZM381.28 133.608C382.786 133.608 384.043 133.182 385.051 132.33C386.06 131.463 386.82 130.284 387.331 128.793C387.857 127.301 388.119 125.604 388.119 123.7C388.119 121.797 387.857 120.099 387.331 118.608C386.82 117.116 386.06 115.937 385.051 115.071C384.043 114.205 382.786 113.771 381.28 113.771C379.76 113.771 378.482 114.205 377.445 115.071C376.422 115.937 375.648 117.116 375.122 118.608C374.611 120.099 374.355 121.797 374.355 123.7C374.355 125.604 374.611 127.301 375.122 128.793C375.648 130.284 376.422 131.463 377.445 132.33C378.482 133.182 379.76 133.608 381.28 133.608Z" fill="#6D6FE6"/>
<path d="M107.956 31H159.519L185.787 59.0758H131.791L107.956 31Z" fill="#6D6FE6"/>
<path d="M107.956 85.5H159.519L185.787 59.0758H131.791L107.956 85.5Z" fill="#313966"/>
<path d="M107.956 85.5H159.519L185.787 111.924H131.791L107.956 85.5Z" fill="#6464C4"/>
<path d="M107.956 140H159.519L185.787 111.924H131.791L107.956 140Z" fill="#393F6C"/>
<path d="M154.763 40.816C154.64 40.6808 154.597 40.6695 154.763 40.646L157.222 40.6459C157.29 40.6364 157.348 40.5857 157.377 40.512L158.368 37.9485C158.438 37.7675 158.653 37.7675 158.723 37.9484L159.714 40.512C159.743 40.5857 159.801 40.6365 159.869 40.646L162.328 40.6459C162.494 40.6694 162.451 40.6808 162.328 40.816L160.591 43.2987C160.541 43.3539 160.519 43.4359 160.532 43.5156L161.434 46.7834C161.466 46.9788 161.21 46.8807 161.065 46.7834L158.641 45.1548C158.582 45.1151 158.51 45.1153 158.45 45.155L156.301 46.7C156.155 46.7974 155.979 46.9788 156.012 46.7834L156.559 43.5157C156.572 43.4361 156.55 43.3538 156.5 43.2987L154.763 40.816Z" fill="white" stroke="white" stroke-width="0.3" stroke-linecap="round" stroke-linejoin="round"/>
</svg>
